<?xml version="1.0" standalone="no"?>
<!DOCTYPE svg PUBLIC "-//W3C//DTD SVG 20010904//EN"
 "http://www.w3.org/TR/2001/REC-SVG-20010904/DTD/svg10.dtd">
<svg version="1.0" xmlns="http://www.w3.org/2000/svg"
 width="1024.000000pt" height="1024.000000pt" viewBox="0 0 1024.000000 1024.000000"
 preserveAspectRatio="xMidYMid meet">

<g transform="translate(0.000000,1024.000000) scale(0.100000,-0.100000)"
fill="#8B5A2B" stroke="none">
<path d="M5385 7690 c-70 -35 -203 -208 -279 -364 -58 -120 -111 -277 -129
-382 l-13 -79 -50 -7 c-27 -4 -100 -12 -163 -18 -348 -34 -704 -151 -956 -315
-294 -191 -495 -495 -495 -750 0 -177 90 -329 226 -381 47 -18 103 -19 1604
-19 l1555 0 68 33 c127 63 203 198 201 362 -1 109 -24 192 -85 310 -120 232
-312 412 -584 548 -94 47 -248 106 -353 137 -142 41 -474 95 -589 95 -40 0
-43 2 -43 28 0 51 40 185 80 267 49 101 118 186 195 240 56 38 60 45 63 84 7
90 -88 205 -183 225 -20 4 -43 0 -70 -14z m-368 -1216 c43 -36 91 -81 106
-100 16 -19 33 -34 37 -34 5 0 38 28 72 61 35 34 86 79 114 101 l51 38 139
-15 c161 -18 311 -42 333 -55 9 -5 56 -49 106 -99 l89 -91 37 36 36 36 59 -30
c33 -17 74 -41 92 -55 l33 -25 -28 -7 -27 -6 35 -27 c18 -14 75 -66 125 -115
73 -71 93 -85 98 -71 6 16 8 16 25 0 11 -10 39 -55 62 -102 52 -103 58 -167
19 -209 -35 -37 -66 -32 -118 20 l-45 46 -36 -29 c-69 -56 -67 -55 -373 -60
-157 -3 -297 -2 -310 1 -12 4 -50 28 -82 56 l-60 49 -59 -48 c-57 -47 -59 -47
-149 -54 -147 -10 -524 -7 -555 5 -15 5 -49 31 -75 56 l-47 46 -55 -48 c-32
-27 -72 -51 -93 -56 -21 -5 -161 -9 -311 -9 -304 0 -299 -1 -376 71 l-43 38
-39 -40 c-81 -84 -155 -93 -192 -22 -35 64 13 189 126 332 l20 24 32 -36 32
-37 90 94 c49 52 98 98 109 101 25 8 10 30 -26 39 -14 4 -25 11 -25 16 0 5 44
32 98 59 l98 49 46 -44 46 -44 99 100 98 101 115 20 c63 11 167 23 230 28 63
4 120 9 127 10 7 0 47 -29 90 -65z"/>
<path d="M4800 6323 c-35 -29 -68 -53 -73 -53 -5 0 -40 23 -78 51 l-69 51 -66
-64 c-51 -48 -62 -64 -48 -67 31 -6 117 -76 187 -151 l66 -72 57 61 c67 73
176 161 198 161 9 0 16 2 16 4 0 2 -28 32 -63 68 l-63 64 -64 -53z"/>
<path d="M5390 6304 c-46 -45 -60 -64 -47 -64 32 0 124 -69 200 -150 l74 -78
17 29 c22 38 191 193 216 199 18 4 12 14 -45 70 -38 37 -69 61 -73 55 -8 -11
-89 -77 -109 -89 -16 -9 -43 5 -109 55 -28 22 -53 39 -55 38 -2 0 -33 -29 -69
-65z"/>
<path d="M4071 6015 l-65 -62 49 -22 c54 -24 177 -119 201 -157 l16 -24 74 70
c41 38 99 84 130 101 l56 32 -63 63 -62 62 -62 -49 c-35 -27 -66 -49 -69 -49
-9 0 -113 77 -121 90 -9 15 -15 12 -84 -55z"/>
<path d="M4953 6017 l-63 -62 59 -27 c36 -17 90 -57 138 -102 l80 -75 49 50
c56 58 128 113 179 138 l35 17 -65 64 -65 64 -27 -25 c-35 -31 -100 -79 -108
-79 -3 0 -36 23 -72 50 -36 28 -69 50 -72 50 -3 -1 -34 -29 -68 -63z"/>
<path d="M5849 6016 l-66 -63 47 -21 c26 -12 85 -56 133 -97 l87 -76 76 66
c83 72 146 115 169 115 25 0 18 12 -47 77 -61 62 -61 62 -82 43 -12 -11 -42
-35 -68 -54 -37 -28 -49 -32 -57 -22 -6 7 -37 31 -69 54 l-57 40 -66 -62z"/>
<path d="M3685 5098 c-2 -7 -8 -51 -14 -98 -37 -313 -14 -638 65 -915 81 -286
219 -555 393 -769 93 -114 265 -271 376 -345 57 -37 167 -101 246 -142 175
-90 235 -143 269 -237 38 -105 88 -135 156 -93 22 14 37 35 54 82 35 96 104
159 260 239 224 113 342 194 489 335 334 320 552 787 612 1314 14 125 7 500
-11 584 l-13 57 -1439 0 c-1142 0 -1439 -3 -1443 -12z m423 -215 c13 -8 27
-24 31 -36 5 -12 12 -101 15 -197 8 -196 18 -288 47 -405 47 -188 114 -354
192 -473 25 -37 49 -77 56 -89 33 -64 -14 -143 -87 -143 -53 0 -80 24 -153
132 -80 119 -130 225 -184 388 -57 175 -74 277 -82 485 -8 219 0 295 33 329
38 38 82 41 132 9z"/>
</g>
</svg>
